<mxfile host="app.diagrams.net" modified="2024-02-23T13:28:11.745Z" agent="Mozilla/5.0 (Windows NT 10.0; Win64; x64) AppleWebKit/537.36 (KHTML, like Gecko) Chrome/121.0.0.0 Safari/537.36" etag="JmDFDJTc-bJM8bCuGI4D" version="23.1.6" type="device">
  <diagram name="Page-1" id="-OE_Tj6KRPhn_U76gN9t">
    <mxGraphModel dx="1300" dy="673" grid="1" gridSize="10" guides="1" tooltips="1" connect="1" arrows="1" fold="1" page="1" pageScale="1" pageWidth="850" pageHeight="1100" math="0" shadow="0">
      <root>
        <mxCell id="0" />
        <mxCell id="1" parent="0" />
        <mxCell id="Dfydb0agoJAQsLGHOrFn-5" style="edgeStyle=orthogonalEdgeStyle;rounded=0;orthogonalLoop=1;jettySize=auto;html=1;exitX=0.25;exitY=0;exitDx=0;exitDy=0;strokeColor=none;" edge="1" parent="1">
          <mxGeometry relative="1" as="geometry">
            <mxPoint x="581" y="100" as="targetPoint" />
            <mxPoint x="581" y="129" as="sourcePoint" />
          </mxGeometry>
        </mxCell>
        <mxCell id="Dfydb0agoJAQsLGHOrFn-54" value="" style="edgeStyle=orthogonalEdgeStyle;rounded=0;orthogonalLoop=1;jettySize=auto;html=1;" edge="1" parent="1" source="Dfydb0agoJAQsLGHOrFn-9" target="Dfydb0agoJAQsLGHOrFn-10">
          <mxGeometry relative="1" as="geometry" />
        </mxCell>
        <mxCell id="Dfydb0agoJAQsLGHOrFn-9" value="User" style="rounded=0;whiteSpace=wrap;html=1;fillColor=#dae8fc;strokeColor=#6c8ebf;gradientColor=#7ea6e0;" vertex="1" parent="1">
          <mxGeometry x="375" y="104" width="110" height="50" as="geometry" />
        </mxCell>
        <mxCell id="Dfydb0agoJAQsLGHOrFn-10" value="Password" style="ellipse;whiteSpace=wrap;html=1;fillColor=#f8cecc;strokeColor=#b85450;gradientColor=#ea6b66;" vertex="1" parent="1">
          <mxGeometry x="395" y="24" width="70" height="40" as="geometry" />
        </mxCell>
        <mxCell id="Dfydb0agoJAQsLGHOrFn-11" value="" style="endArrow=none;html=1;rounded=0;entryX=0.5;entryY=1;entryDx=0;entryDy=0;" edge="1" parent="1" source="Dfydb0agoJAQsLGHOrFn-9">
          <mxGeometry width="50" height="50" relative="1" as="geometry">
            <mxPoint x="640" y="204" as="sourcePoint" />
            <mxPoint x="430" y="64" as="targetPoint" />
          </mxGeometry>
        </mxCell>
        <mxCell id="Dfydb0agoJAQsLGHOrFn-14" value="&lt;u&gt;uid&lt;/u&gt;" style="ellipse;whiteSpace=wrap;html=1;fillColor=#f8cecc;strokeColor=#b85450;gradientColor=#ea6b66;" vertex="1" parent="1">
          <mxGeometry x="300" y="24" width="70" height="40" as="geometry" />
        </mxCell>
        <mxCell id="Dfydb0agoJAQsLGHOrFn-15" value="" style="endArrow=none;html=1;rounded=0;entryX=0.5;entryY=1;entryDx=0;entryDy=0;" edge="1" parent="1" source="Dfydb0agoJAQsLGHOrFn-9">
          <mxGeometry width="50" height="50" relative="1" as="geometry">
            <mxPoint x="640" y="204" as="sourcePoint" />
            <mxPoint x="335" y="64" as="targetPoint" />
          </mxGeometry>
        </mxCell>
        <mxCell id="Dfydb0agoJAQsLGHOrFn-16" value="has" style="rhombus;whiteSpace=wrap;html=1;fillColor=#fff2cc;strokeColor=#d6b656;gradientColor=#ffd966;" vertex="1" parent="1">
          <mxGeometry x="395" y="225" width="70" height="70" as="geometry" />
        </mxCell>
        <mxCell id="Dfydb0agoJAQsLGHOrFn-17" value="" style="endArrow=none;html=1;rounded=0;entryX=0.5;entryY=1;entryDx=0;entryDy=0;exitX=0.5;exitY=0;exitDx=0;exitDy=0;" edge="1" parent="1" source="Dfydb0agoJAQsLGHOrFn-16" target="Dfydb0agoJAQsLGHOrFn-9">
          <mxGeometry width="50" height="50" relative="1" as="geometry">
            <mxPoint x="515" y="220" as="sourcePoint" />
            <mxPoint x="565" y="170" as="targetPoint" />
          </mxGeometry>
        </mxCell>
        <mxCell id="Dfydb0agoJAQsLGHOrFn-49" value="1" style="edgeLabel;html=1;align=center;verticalAlign=middle;resizable=0;points=[];" vertex="1" connectable="0" parent="Dfydb0agoJAQsLGHOrFn-17">
          <mxGeometry x="0.5587" y="2" relative="1" as="geometry">
            <mxPoint as="offset" />
          </mxGeometry>
        </mxCell>
        <mxCell id="Dfydb0agoJAQsLGHOrFn-18" value="FAQ" style="rounded=0;whiteSpace=wrap;html=1;fillColor=#dae8fc;strokeColor=#6c8ebf;gradientColor=#7ea6e0;" vertex="1" parent="1">
          <mxGeometry x="551" y="235" width="110" height="50" as="geometry" />
        </mxCell>
        <mxCell id="Dfydb0agoJAQsLGHOrFn-19" value="&lt;u&gt;faq_id&lt;/u&gt;" style="ellipse;whiteSpace=wrap;html=1;fillColor=#f8cecc;strokeColor=#b85450;gradientColor=#ea6b66;" vertex="1" parent="1">
          <mxGeometry x="661" y="170" width="70" height="40" as="geometry" />
        </mxCell>
        <mxCell id="Dfydb0agoJAQsLGHOrFn-20" value="faq_que" style="ellipse;whiteSpace=wrap;html=1;fillColor=#f8cecc;strokeColor=#b85450;gradientColor=#ea6b66;" vertex="1" parent="1">
          <mxGeometry x="710" y="240" width="70" height="40" as="geometry" />
        </mxCell>
        <mxCell id="Dfydb0agoJAQsLGHOrFn-21" value="faq_ans" style="ellipse;whiteSpace=wrap;html=1;fillColor=#f8cecc;strokeColor=#b85450;gradientColor=#ea6b66;" vertex="1" parent="1">
          <mxGeometry x="661" y="310" width="70" height="40" as="geometry" />
        </mxCell>
        <mxCell id="Dfydb0agoJAQsLGHOrFn-22" value="Not FAQ resolved" style="rounded=0;whiteSpace=wrap;html=1;fillColor=#dae8fc;strokeColor=#6c8ebf;gradientColor=#7ea6e0;" vertex="1" parent="1">
          <mxGeometry x="181" y="235" width="110" height="50" as="geometry" />
        </mxCell>
        <mxCell id="Dfydb0agoJAQsLGHOrFn-24" value="&lt;u&gt;nfaq_id&lt;/u&gt;" style="ellipse;whiteSpace=wrap;html=1;fillColor=#f8cecc;strokeColor=#b85450;gradientColor=#ea6b66;" vertex="1" parent="1">
          <mxGeometry x="111" y="170" width="70" height="40" as="geometry" />
        </mxCell>
        <mxCell id="Dfydb0agoJAQsLGHOrFn-25" value="nfaq_que" style="ellipse;whiteSpace=wrap;html=1;fillColor=#f8cecc;strokeColor=#b85450;gradientColor=#ea6b66;" vertex="1" parent="1">
          <mxGeometry x="61" y="240" width="70" height="40" as="geometry" />
        </mxCell>
        <mxCell id="Dfydb0agoJAQsLGHOrFn-26" value="nfaq_ans" style="ellipse;whiteSpace=wrap;html=1;fillColor=#f8cecc;strokeColor=#b85450;gradientColor=#ea6b66;" vertex="1" parent="1">
          <mxGeometry x="111" y="315" width="70" height="40" as="geometry" />
        </mxCell>
        <mxCell id="Dfydb0agoJAQsLGHOrFn-27" value="admin" style="rounded=0;whiteSpace=wrap;html=1;fillColor=#dae8fc;strokeColor=#6c8ebf;gradientColor=#7ea6e0;" vertex="1" parent="1">
          <mxGeometry x="375" y="461" width="110" height="50" as="geometry" />
        </mxCell>
        <mxCell id="Dfydb0agoJAQsLGHOrFn-28" value="Password" style="ellipse;whiteSpace=wrap;html=1;fillColor=#f8cecc;strokeColor=#b85450;gradientColor=#ea6b66;" vertex="1" parent="1">
          <mxGeometry x="485" y="540" width="70" height="40" as="geometry" />
        </mxCell>
        <mxCell id="Dfydb0agoJAQsLGHOrFn-30" value="&lt;u&gt;aid&lt;/u&gt;" style="ellipse;whiteSpace=wrap;html=1;fillColor=#f8cecc;strokeColor=#b85450;gradientColor=#ea6b66;" vertex="1" parent="1">
          <mxGeometry x="395" y="570" width="70" height="40" as="geometry" />
        </mxCell>
        <mxCell id="Dfydb0agoJAQsLGHOrFn-32" value="" style="endArrow=none;html=1;rounded=0;entryX=0.75;entryY=1;entryDx=0;entryDy=0;exitX=0;exitY=0;exitDx=0;exitDy=0;" edge="1" parent="1" source="Dfydb0agoJAQsLGHOrFn-28" target="Dfydb0agoJAQsLGHOrFn-27">
          <mxGeometry width="50" height="50" relative="1" as="geometry">
            <mxPoint x="380" y="490" as="sourcePoint" />
            <mxPoint x="430" y="440" as="targetPoint" />
          </mxGeometry>
        </mxCell>
        <mxCell id="Dfydb0agoJAQsLGHOrFn-33" value="" style="endArrow=none;html=1;rounded=0;entryX=0.5;entryY=1;entryDx=0;entryDy=0;exitX=0.5;exitY=0;exitDx=0;exitDy=0;" edge="1" parent="1" source="Dfydb0agoJAQsLGHOrFn-30" target="Dfydb0agoJAQsLGHOrFn-27">
          <mxGeometry width="50" height="50" relative="1" as="geometry">
            <mxPoint x="380" y="490" as="sourcePoint" />
            <mxPoint x="430" y="440" as="targetPoint" />
          </mxGeometry>
        </mxCell>
        <mxCell id="Dfydb0agoJAQsLGHOrFn-34" value="" style="endArrow=none;html=1;rounded=0;entryX=0;entryY=0.5;entryDx=0;entryDy=0;" edge="1" parent="1" target="Dfydb0agoJAQsLGHOrFn-20">
          <mxGeometry width="50" height="50" relative="1" as="geometry">
            <mxPoint x="660" y="260" as="sourcePoint" />
            <mxPoint x="430" y="230" as="targetPoint" />
          </mxGeometry>
        </mxCell>
        <mxCell id="Dfydb0agoJAQsLGHOrFn-35" value="" style="endArrow=none;html=1;rounded=0;exitX=0.75;exitY=0;exitDx=0;exitDy=0;entryX=0;entryY=1;entryDx=0;entryDy=0;" edge="1" parent="1" source="Dfydb0agoJAQsLGHOrFn-18" target="Dfydb0agoJAQsLGHOrFn-19">
          <mxGeometry width="50" height="50" relative="1" as="geometry">
            <mxPoint x="380" y="280" as="sourcePoint" />
            <mxPoint x="430" y="230" as="targetPoint" />
          </mxGeometry>
        </mxCell>
        <mxCell id="Dfydb0agoJAQsLGHOrFn-36" value="" style="endArrow=none;html=1;rounded=0;entryX=1;entryY=0;entryDx=0;entryDy=0;exitX=0.25;exitY=1;exitDx=0;exitDy=0;" edge="1" parent="1" source="Dfydb0agoJAQsLGHOrFn-22" target="Dfydb0agoJAQsLGHOrFn-26">
          <mxGeometry width="50" height="50" relative="1" as="geometry">
            <mxPoint x="380" y="280" as="sourcePoint" />
            <mxPoint x="430" y="230" as="targetPoint" />
          </mxGeometry>
        </mxCell>
        <mxCell id="Dfydb0agoJAQsLGHOrFn-37" value="" style="endArrow=none;html=1;rounded=0;entryX=1;entryY=1;entryDx=0;entryDy=0;exitX=0.25;exitY=0;exitDx=0;exitDy=0;" edge="1" parent="1" source="Dfydb0agoJAQsLGHOrFn-22" target="Dfydb0agoJAQsLGHOrFn-24">
          <mxGeometry width="50" height="50" relative="1" as="geometry">
            <mxPoint x="380" y="280" as="sourcePoint" />
            <mxPoint x="430" y="230" as="targetPoint" />
          </mxGeometry>
        </mxCell>
        <mxCell id="Dfydb0agoJAQsLGHOrFn-38" value="" style="endArrow=none;html=1;rounded=0;entryX=0;entryY=0.5;entryDx=0;entryDy=0;exitX=1;exitY=0.5;exitDx=0;exitDy=0;" edge="1" parent="1" source="Dfydb0agoJAQsLGHOrFn-25" target="Dfydb0agoJAQsLGHOrFn-22">
          <mxGeometry width="50" height="50" relative="1" as="geometry">
            <mxPoint x="380" y="280" as="sourcePoint" />
            <mxPoint x="430" y="230" as="targetPoint" />
          </mxGeometry>
        </mxCell>
        <mxCell id="Dfydb0agoJAQsLGHOrFn-39" value="" style="endArrow=none;html=1;rounded=0;entryX=0.75;entryY=1;entryDx=0;entryDy=0;exitX=0;exitY=0;exitDx=0;exitDy=0;" edge="1" parent="1" source="Dfydb0agoJAQsLGHOrFn-21" target="Dfydb0agoJAQsLGHOrFn-18">
          <mxGeometry width="50" height="50" relative="1" as="geometry">
            <mxPoint x="380" y="370" as="sourcePoint" />
            <mxPoint x="430" y="320" as="targetPoint" />
          </mxGeometry>
        </mxCell>
        <mxCell id="Dfydb0agoJAQsLGHOrFn-41" value="" style="endArrow=none;html=1;rounded=0;entryX=0;entryY=0.5;entryDx=0;entryDy=0;exitX=1;exitY=0.5;exitDx=0;exitDy=0;" edge="1" parent="1" source="Dfydb0agoJAQsLGHOrFn-22" target="Dfydb0agoJAQsLGHOrFn-16">
          <mxGeometry width="50" height="50" relative="1" as="geometry">
            <mxPoint x="380" y="320" as="sourcePoint" />
            <mxPoint x="430" y="270" as="targetPoint" />
          </mxGeometry>
        </mxCell>
        <mxCell id="Dfydb0agoJAQsLGHOrFn-48" value="M" style="edgeLabel;html=1;align=center;verticalAlign=middle;resizable=0;points=[];" vertex="1" connectable="0" parent="Dfydb0agoJAQsLGHOrFn-41">
          <mxGeometry x="-0.6474" relative="1" as="geometry">
            <mxPoint as="offset" />
          </mxGeometry>
        </mxCell>
        <mxCell id="Dfydb0agoJAQsLGHOrFn-42" value="" style="endArrow=none;html=1;rounded=0;entryX=1;entryY=0.5;entryDx=0;entryDy=0;exitX=0;exitY=0.5;exitDx=0;exitDy=0;" edge="1" parent="1" source="Dfydb0agoJAQsLGHOrFn-18" target="Dfydb0agoJAQsLGHOrFn-16">
          <mxGeometry width="50" height="50" relative="1" as="geometry">
            <mxPoint x="380" y="320" as="sourcePoint" />
            <mxPoint x="430" y="270" as="targetPoint" />
          </mxGeometry>
        </mxCell>
        <mxCell id="Dfydb0agoJAQsLGHOrFn-50" value="M" style="edgeLabel;html=1;align=center;verticalAlign=middle;resizable=0;points=[];" vertex="1" connectable="0" parent="Dfydb0agoJAQsLGHOrFn-42">
          <mxGeometry x="-0.6589" relative="1" as="geometry">
            <mxPoint as="offset" />
          </mxGeometry>
        </mxCell>
        <mxCell id="Dfydb0agoJAQsLGHOrFn-43" value="has" style="rhombus;whiteSpace=wrap;html=1;fillColor=#fff2cc;strokeColor=#d6b656;gradientColor=#ffd966;" vertex="1" parent="1">
          <mxGeometry x="395" y="343" width="70" height="70" as="geometry" />
        </mxCell>
        <mxCell id="Dfydb0agoJAQsLGHOrFn-44" value="" style="endArrow=none;html=1;rounded=0;entryX=0.5;entryY=1;entryDx=0;entryDy=0;exitX=1;exitY=0.5;exitDx=0;exitDy=0;" edge="1" parent="1" source="Dfydb0agoJAQsLGHOrFn-43" target="Dfydb0agoJAQsLGHOrFn-18">
          <mxGeometry width="50" height="50" relative="1" as="geometry">
            <mxPoint x="380" y="420" as="sourcePoint" />
            <mxPoint x="430" y="370" as="targetPoint" />
            <Array as="points">
              <mxPoint x="606" y="378" />
            </Array>
          </mxGeometry>
        </mxCell>
        <mxCell id="Dfydb0agoJAQsLGHOrFn-51" value="M" style="edgeLabel;html=1;align=center;verticalAlign=middle;resizable=0;points=[];" vertex="1" connectable="0" parent="Dfydb0agoJAQsLGHOrFn-44">
          <mxGeometry x="0.8689" y="2" relative="1" as="geometry">
            <mxPoint as="offset" />
          </mxGeometry>
        </mxCell>
        <mxCell id="Dfydb0agoJAQsLGHOrFn-45" value="" style="endArrow=none;html=1;rounded=0;entryX=0.5;entryY=1;entryDx=0;entryDy=0;" edge="1" parent="1" target="Dfydb0agoJAQsLGHOrFn-43">
          <mxGeometry width="50" height="50" relative="1" as="geometry">
            <mxPoint x="430" y="460" as="sourcePoint" />
            <mxPoint x="430" y="370" as="targetPoint" />
          </mxGeometry>
        </mxCell>
        <mxCell id="Dfydb0agoJAQsLGHOrFn-52" value="1" style="edgeLabel;html=1;align=center;verticalAlign=middle;resizable=0;points=[];" vertex="1" connectable="0" parent="Dfydb0agoJAQsLGHOrFn-45">
          <mxGeometry x="-0.1631" y="2" relative="1" as="geometry">
            <mxPoint as="offset" />
          </mxGeometry>
        </mxCell>
        <mxCell id="Dfydb0agoJAQsLGHOrFn-46" value="" style="endArrow=none;html=1;rounded=0;entryX=0.5;entryY=1;entryDx=0;entryDy=0;exitX=0;exitY=0.5;exitDx=0;exitDy=0;" edge="1" parent="1" source="Dfydb0agoJAQsLGHOrFn-43" target="Dfydb0agoJAQsLGHOrFn-22">
          <mxGeometry width="50" height="50" relative="1" as="geometry">
            <mxPoint x="380" y="420" as="sourcePoint" />
            <mxPoint x="430" y="370" as="targetPoint" />
            <Array as="points">
              <mxPoint x="236" y="378" />
            </Array>
          </mxGeometry>
        </mxCell>
        <mxCell id="Dfydb0agoJAQsLGHOrFn-53" value="M" style="edgeLabel;html=1;align=center;verticalAlign=middle;resizable=0;points=[];" vertex="1" connectable="0" parent="Dfydb0agoJAQsLGHOrFn-46">
          <mxGeometry x="0.8942" y="1" relative="1" as="geometry">
            <mxPoint as="offset" />
          </mxGeometry>
        </mxCell>
      </root>
    </mxGraphModel>
  </diagram>
</mxfile>
